# xmcd
#
# Track frame offsets:
#	150
#	12514
#	27876
#	43416
#	57294
#	73424
#	85259
#	101816
#	120784
#	137271
#
# Disc length: 2010 seconds
#
# Revision: 0
# Processed by: cddbd v1.5.2PL0 Copyright (c) Steve Scherf et al.
# Submitted via: EasyCDDAExtractor 15.2.5.1
#
DISCID=8507d80a
DTITLE=Marcus and Alan - France And Poland Tour
DYEAR=1997
DGENRE=country
TTITLE0=Can't Never Could
TTITLE1=Mind Of The Heart
TTITLE2=Betty's Beauty World
TTITLE3=Out Of Sight, Out Of Mind
TTITLE4=I KnowYou Here Me
TTITLE5=I Can Read Between The Lies
TTITLE6=What You See Is What You Get
TTITLE7=Lovin You, Lovin Me
TTITLE8=Letter Home
TTITLE9=Out On Our Own
EXTD=
EXTT0=
EXTT1=
EXTT2=
EXTT3=
EXTT4=
EXTT5=
EXTT6=
EXTT7=
EXTT8=
EXTT9=
PLAYORDER=
